<?xml version="1.0" standalone="no"?>
<!DOCTYPE svg PUBLIC "-//W3C//DTD SVG 20010904//EN"
 "http://www.w3.org/TR/2001/REC-SVG-20010904/DTD/svg10.dtd">
<svg version="1.0" xmlns="http://www.w3.org/2000/svg"
 width="16.000000pt" height="16.000000pt" viewBox="0 0 16.000000 16.000000"
 preserveAspectRatio="xMidYMid meet">
<metadata>
Created by potrace 1.11, written by Peter Selinger 2001-2013
</metadata>
<g transform="translate(0.000000,16.000000) scale(0.000795,-0.000795)"
fill="#000000" stroke="none">
<path d="M13680 14668 c-2 -5 -3 -11 -5 -15 -1 -5 -5 -26 -9 -48 -4 -22 -12
-53 -16 -70 -5 -16 -11 -43 -14 -60 -3 -16 -10 -48 -15 -70 -5 -22 -13 -53
-16 -70 -3 -16 -7 -34 -9 -40 -3 -11 -15 -68 -21 -100 -2 -11 -4 -20 -5 -20
-1 0 -3 -10 -6 -22 -3 -19 -41 -189 -48 -218 -4 -13 -16 -75 -21 -100 -2 -11
-4 -20 -5 -20 -1 0 -3 -11 -6 -23 -2 -13 -29 -49 -59 -80 -30 -32 -83 -87
-117 -123 -73 -77 -282 -297 -380 -401 -38 -39 -68 -75 -68 -79 0 -5 -7 -9
-15 -9 -8 0 -15 -3 -15 -7 0 -5 -36 -46 -81 -93 -44 -47 -124 -131 -177 -188
-53 -57 -121 -127 -151 -157 l-54 -55 -31 19 c-66 39 -103 60 -161 91 -33 18
-74 41 -91 51 -36 22 -40 19 -70 -48 -10 -24 -22 -43 -28 -43 -5 0 -6 -3 -3
-7 4 -3 2 -12 -3 -18 -10 -12 -37 -61 -88 -160 -14 -27 -28 -52 -31 -55 -4 -3
-16 -25 -28 -50 -12 -25 -42 -81 -66 -125 -24 -44 -65 -120 -92 -170 -27 -49
-59 -108 -71 -130 -12 -22 -43 -79 -68 -127 -26 -48 -56 -105 -68 -125 -12
-21 -33 -60 -48 -88 -90 -171 -113 -206 -129 -199 -9 3 -25 9 -36 12 -11 2
-25 8 -30 13 -6 4 -22 10 -35 13 -14 2 -62 18 -107 35 -46 16 -83 27 -83 24 0
-3 -6 -1 -12 4 -7 6 -58 25 -113 43 -55 18 -104 36 -108 40 -4 4 -22 63 -38
131 -37 148 -37 151 -38 167 -1 6 -6 12 -13 12 -6 0 -41 14 -77 31 -36 18 -91
43 -121 58 -30 14 -58 27 -61 29 -4 2 -15 -19 -25 -45 -9 -26 -22 -54 -27 -60
-5 -7 -7 -13 -4 -13 4 0 -2 -20 -13 -45 -11 -25 -16 -45 -12 -45 4 0 3 -4 -3
-8 -8 -5 -39 -83 -59 -147 -2 -5 -5 -17 -8 -25 -3 -8 -13 -35 -21 -60 -9 -25
-22 -58 -28 -75 -7 -16 -13 -32 -13 -35 -2 -10 -48 -135 -61 -165 -7 -16 -20
-55 -30 -85 -10 -30 -20 -59 -24 -65 -3 -5 -6 -14 -7 -20 -1 -5 -6 -21 -12
-35 -5 -14 -11 -29 -12 -35 -1 -5 -6 -16 -12 -22 -6 -7 -8 -13 -5 -13 14 0
-30 -82 -88 -165 -64 -93 -239 -351 -264 -388 -44 -68 -76 -113 -85 -119 -6
-4 -7 -8 -2 -8 5 0 1 -10 -10 -22 -21 -25 -29 -36 -124 -178 -36 -52 -68 -96
-72 -98 -4 -2 -8 -8 -8 -14 0 -6 -13 -27 -30 -48 -16 -21 -30 -41 -30 -45 0
-6 -49 -75 -61 -85 -3 -3 -8 -10 -10 -16 -4 -11 -114 -175 -296 -440 -51 -73
-93 -138 -93 -144 0 -5 -3 -10 -7 -10 -5 0 -21 -21 -38 -48 -16 -26 -32 -49
-36 -52 -20 -16 -9 -45 52 -137 l69 -102 -86 -168 c-46 -92 -95 -177 -108
-188 -47 -39 -71 -57 -93 -68 -13 -5 -23 -14 -23 -19 0 -4 -5 -8 -10 -8 -6 0
-28 -12 -49 -28 -21 -15 -49 -34 -61 -42 -12 -8 -28 -19 -34 -25 -6 -5 -23
-16 -37 -23 -14 -8 -39 -25 -54 -38 l-28 -24 -36 22 c-20 12 -38 25 -41 29 -3
3 -31 25 -64 47 l-58 41 -37 -15 c-20 -9 -44 -18 -53 -21 -10 -3 -18 -9 -18
-12 0 -4 -6 -8 -12 -8 -7 0 -35 -10 -63 -23 -27 -13 -86 -38 -130 -58 -44 -19
-96 -41 -115 -50 -19 -9 -37 -16 -40 -17 -3 -1 -23 -9 -44 -18 -22 -10 -46
-15 -53 -13 -7 3 -15 5 -18 6 -3 0 -19 7 -35 15 -16 8 -32 15 -35 15 -3 0 -6
0 -7 1 -2 0 -10 2 -18 4 -8 2 -46 15 -85 28 -50 18 -72 22 -76 14 -5 -10 -21
-86 -35 -167 -3 -14 -8 -34 -11 -45 -4 -11 -7 -28 -8 -37 -2 -25 -7 -28 -57
-40 -24 -5 -52 -12 -63 -14 -11 -3 -33 -7 -50 -10 -16 -3 -55 -12 -85 -20 -30
-8 -66 -16 -80 -18 -14 -2 -68 -14 -120 -26 -52 -12 -106 -24 -120 -26 -14 -3
-41 -9 -60 -14 -19 -5 -47 -12 -62 -15 -16 -3 -38 -7 -50 -10 -13 -3 -32 -7
-43 -9 -11 -2 -42 -9 -69 -16 -27 -6 -52 -7 -55 -3 -3 4 -13 13 -22 18 -14 8
-171 126 -204 153 -5 4 -28 21 -50 37 -22 17 -49 38 -59 48 -22 19 -36 22 -36
7 0 -5 -4 -10 -10 -10 -7 0 -256 -171 -315 -217 -5 -5 -23 -17 -40 -27 -30
-20 -42 -29 -74 -56 -20 -17 -45 -34 -82 -54 -24 -14 -29 -13 -85 24 -32 21
-63 43 -69 47 -5 5 -17 12 -25 16 -8 4 -58 34 -110 68 -52 34 -104 67 -115 73
-11 6 -67 42 -123 79 -57 38 -115 73 -128 79 -13 6 -24 15 -24 20 0 4 -7 8
-15 8 -8 0 -15 5 -15 10 0 6 -5 10 -10 10 -6 0 -44 23 -85 50 -41 28 -79 50
-85 50 -5 0 -10 3 -11 8 -6 57 -20 197 -24 239 -1 23 -5 45 -7 50 -3 4 -6 28
-7 53 -2 25 -5 59 -7 75 -3 17 -7 48 -10 69 -2 22 -5 41 -7 42 -1 1 -31 -22
-67 -52 -36 -30 -69 -58 -75 -62 -33 -25 -172 -139 -183 -150 -8 -7 -30 -25
-50 -40 -21 -15 -42 -31 -48 -37 -6 -5 -28 -23 -48 -40 -60 -47 -123 -99 -167
-138 -17 -15 -44 -35 -60 -44 -16 -10 -29 -20 -29 -24 0 -4 -26 -26 -57 -49
-32 -24 -62 -48 -68 -54 -22 -25 -131 -104 -155 -111 -14 -4 -27 -10 -30 -14
-3 -3 -77 -42 -165 -86 -88 -44 -162 -83 -165 -86 -3 -4 -15 -10 -28 -13 -13
-4 -49 -22 -80 -39 -31 -18 -111 -59 -177 -92 -66 -33 -123 -64 -127 -70 -4
-5 -8 -7 -8 -2 0 11 -53 -25 -70 -48 -8 -11 -13 -21 -12 -23 2 -1 -3 -9 -10
-16 -7 -7 -21 -24 -31 -37 -9 -13 -49 -67 -87 -119 -38 -52 -73 -99 -77 -105
-5 -5 -20 -26 -33 -45 -13 -19 -29 -40 -35 -47 -29 -35 -35 -43 -35 -47 0 -4
-110 -156 -138 -191 -4 -5 -20 -27 -36 -47 -22 -30 -38 -39 -79 -48 -29 -5
-63 -13 -77 -15 -14 -3 -36 -7 -50 -10 -14 -2 -92 -17 -175 -34 -122 -25 -153
-35 -167 -54 -10 -12 -18 -27 -18 -34 0 -6 -3 -13 -8 -15 -4 -1 -32 -46 -61
-98 -75 -132 -87 -147 -118 -153 -44 -8 -99 -23 -253 -68 -117 -34 -319 -90
-340 -95 -14 -3 -50 -12 -80 -21 -30 -9 -60 -18 -66 -19 -6 -1 -38 -10 -70
-20 -71 -21 -73 -21 -103 -28 -13 -3 -49 -13 -80 -22 -70 -22 -82 -25 -139
-38 -9 -2 -30 -9 -45 -15 -16 -6 -33 -9 -38 -5 -5 3 -9 1 -9 -4 0 -5 -6 -9
-12 -10 -17 -1 -56 -10 -93 -21 -29 -9 -29 -9 -5 -11 14 -1 39 -3 55 -5 17 -1
88 -6 160 -9 72 -4 148 -9 170 -11 22 -3 92 -7 155 -10 63 -3 147 -7 185 -10
39 -3 113 -7 165 -10 52 -3 142 -8 200 -12 58 -3 122 -6 143 -7 20 0 37 -3 37
-6 0 -3 37 -6 83 -6 75 -2 124 -4 362 -19 44 -3 121 -8 170 -11 50 -3 99 -6
110 -8 11 -1 28 2 39 7 12 6 16 5 12 -1 -5 -9 43 -13 201 -16 40 0 73 -3 73
-6 0 -3 24 -6 52 -6 124 -2 218 -9 218 -17 0 -4 8 -3 19 2 10 6 20 8 23 6 4
-5 74 -11 233 -20 50 -2 128 -7 175 -10 47 -3 128 -8 180 -11 52 -3 118 -7
145 -9 28 -2 100 -6 160 -9 61 -3 155 -9 210 -12 55 -4 118 -7 140 -8 22 0 43
-5 47 -11 5 -6 8 -5 8 3 0 7 4 11 9 8 8 -6 81 -11 261 -21 161 -9 278 -16 345
-20 39 -3 108 -7 155 -10 130 -8 267 -16 345 -20 39 -2 113 -7 165 -10 52 -4
129 -8 170 -10 41 -2 111 -6 155 -9 44 -3 125 -8 180 -11 55 -3 129 -8 165
-10 69 -5 136 -9 320 -20 63 -3 138 -8 165 -10 28 -3 99 -7 159 -10 60 -3 112
-8 117 -10 4 -3 10 -1 14 5 4 6 11 7 17 4 6 -4 27 -8 47 -10 64 -4 223 -14
341 -20 123 -7 185 -11 185 -13 0 -1 45 -4 100 -6 55 -2 138 -6 185 -9 118 -8
228 -15 345 -22 55 -3 127 -7 160 -10 33 -2 101 -6 150 -9 50 -3 128 -7 175
-10 47 -3 128 -8 180 -11 132 -7 187 -11 325 -20 152 -11 6047 -11 6805 0 311
4 703 9 871 11 169 1 312 6 318 9 6 4 11 4 11 -1 0 -4 14 -8 30 -8 17 0 30 3
30 7 0 4 7 5 17 1 14 -5 78 -8 86 -3 10 7 47 5 47 -2 0 -5 5 -6 12 -2 17 11
78 11 78 1 0 -4 5 -5 12 -1 12 7 315 12 1100 17 214 1 388 6 388 10 0 4 8 3
19 -2 10 -6 21 -8 23 -5 3 2 200 7 438 9 238 3 435 6 436 8 2 2 -2 26 -10 53
-28 99 -30 97 48 42 39 -28 86 -62 103 -76 l33 -24 2 308 3 307 49 -94 c78
-148 105 -199 148 -279 22 -41 57 -109 78 -150 21 -41 38 -65 37 -52 -1 12 -5
22 -9 22 -4 0 -8 11 -8 23 0 13 -3 27 -7 31 -4 3 -8 13 -9 21 -3 23 -64 208
-75 227 -5 10 -9 26 -9 36 0 10 -4 22 -9 28 -6 5 -12 20 -14 34 -2 14 -7 32
-10 40 -10 28 -52 155 -57 175 -1 6 -11 33 -22 60 -11 28 -19 50 -17 50 2 0
-27 96 -38 125 -4 8 -7 18 -8 23 -2 4 -3 8 -5 10 -1 1 -3 9 -5 17 -3 17 -53
166 -62 190 -4 8 -7 18 -7 22 -2 17 -8 18 -146 34 -25 3 -56 7 -70 9 -25 4
-57 7 -160 19 -119 14 -137 16 -180 21 -25 3 -58 7 -75 9 -16 3 -57 8 -90 11
-33 4 -75 8 -93 10 l-33 4 6 -39 c3 -22 7 -57 10 -77 2 -21 7 -58 11 -83 10
-74 12 -101 5 -98 -3 2 -50 24 -103 51 l-97 47 -190 -49 c-105 -27 -191 -45
-191 -40 0 5 32 72 70 149 l70 140 -37 23 c-21 13 -49 30 -63 37 -14 7 -27 16
-30 19 -4 6 -186 118 -286 177 -19 12 -39 25 -44 30 -11 11 -21 59 -34 154 -8
62 -17 119 -23 155 -3 17 -6 37 -8 45 -13 98 -21 114 -44 86 -7 -8 -39 -30
-72 -50 l-59 -35 -70 28 c-38 16 -72 26 -75 23 -3 -3 -5 1 -5 8 0 7 -3 11 -6
8 -3 -4 -31 5 -62 19 -89 39 -94 41 -152 64 -30 12 -73 29 -95 39 -22 9 -61
25 -87 35 -27 10 -48 21 -48 26 0 4 -6 14 -13 21 -7 7 -29 34 -49 59 -57 75
-85 102 -92 90 -4 -6 -14 -11 -21 -11 -10 0 -6 15 16 53 17 28 33 54 35 56 6
6 43 -39 49 -60 4 -11 11 -19 16 -19 5 0 9 -5 9 -11 0 -12 60 -103 72 -107 4
-2 8 -8 8 -14 0 -5 9 -23 21 -39 l20 -29 35 50 c19 27 34 54 34 59 0 6 6 14
13 18 7 4 36 43 64 85 l51 77 19 -22 c10 -12 32 -40 49 -62 17 -22 68 -89 114
-150 46 -60 90 -116 97 -123 7 -7 13 -17 13 -22 0 -5 9 -18 21 -29 23 -21 23
-21 134 29 98 44 120 51 123 40 2 -6 12 -19 21 -28 9 -9 37 -42 61 -72 25 -30
47 -57 50 -60 3 -3 18 -23 35 -45 16 -22 32 -42 35 -45 3 -3 24 -27 45 -55 22
-27 46 -54 53 -58 6 -4 12 -15 12 -22 0 -8 4 -15 9 -15 5 0 27 -24 49 -52 22
-29 49 -63 61 -75 12 -13 18 -23 14 -23 -4 0 -3 -4 3 -8 15 -10 124 -140 124
-147 0 -4 6 -13 14 -20 12 -12 26 -10 97 16 46 17 104 38 129 46 56 20 70 30
70 54 0 11 5 19 12 19 6 0 9 3 5 6 -5 5 10 58 30 104 3 8 7 20 9 25 1 6 10 27
19 49 9 21 14 40 12 42 -2 2 -20 5 -40 6 -20 2 -37 6 -37 10 0 4 -8 6 -17 4
-10 -2 -28 0 -39 3 -22 6 -22 6 7 69 l29 62 -62 78 c-35 42 -67 82 -73 88 -11
12 -57 71 -65 84 -7 11 -244 80 -282 83 -10 1 -18 5 -18 9 0 4 -3 7 -7 6 -5
-1 -28 4 -52 11 -45 13 -52 19 -135 115 -27 31 -61 70 -75 85 -14 16 -53 59
-86 96 -94 105 -96 107 -175 195 -41 45 -83 92 -93 103 -41 47 -133 151 -147
165 -17 17 -22 42 -9 42 5 0 9 7 9 15 0 8 5 15 11 15 5 0 7 5 4 10 -16 27 14
1 117 -100 62 -60 117 -110 121 -110 5 0 5 -4 2 -10 -3 -5 -2 -10 3 -10 4 0
110 -100 235 -223 125 -122 227 -222 227 -221 0 1 30 -28 68 -65 96 -95 93
-94 133 -78 19 8 43 18 54 22 11 4 25 9 32 11 7 1 30 10 51 19 l40 18 -90 59
-89 58 7 38 c4 20 9 41 12 47 3 5 7 20 8 32 2 13 8 47 13 76 6 28 13 61 15 72
3 11 9 39 14 62 5 23 7 44 4 48 -3 3 0 5 6 5 7 0 24 -14 39 -31 16 -18 39 -44
53 -59 60 -66 177 -195 193 -214 41 -47 79 -86 85 -86 4 0 8 26 9 58 2 62 8
162 19 317 4 55 7 124 8 154 1 59 6 54 -69 64 -16 2 -45 8 -63 12 -19 4 -43 8
-55 10 -189 29 -205 36 -151 61 50 23 137 75 145 87 3 5 8 8 10 7 2 -1 12 2
21 5 26 10 13 23 -35 37 -23 6 -44 12 -47 13 -3 1 -18 5 -35 10 -16 4 -36 13
-44 19 -8 6 -16 10 -18 9 -1 -2 -4 -3 -5 -2 -2 0 -10 2 -18 4 -27 6 -304 95
-350 113 -37 14 -56 33 -108 102 -34 47 -68 92 -75 100 -6 9 -32 42 -57 75
-25 33 -47 62 -50 65 -3 3 -17 21 -30 40 -13 19 -30 42 -37 50 -13 14 -76 98
-118 156 -11 15 -26 33 -32 40 -7 7 -13 17 -13 23 0 6 -3 11 -7 11 -5 0 -19
17 -33 37 -14 21 -32 45 -40 54 -8 9 -24 29 -35 44 -11 16 -30 41 -42 56 -13
15 -23 30 -23 34 0 4 -6 13 -13 19 -8 6 -63 76 -122 156 -60 80 -112 147 -117
148 -4 2 -8 10 -8 18 0 8 -3 14 -7 14 -5 0 -21 20 -36 45 -16 25 -32 45 -35
45 -4 0 -18 18 -31 39 -14 23 -40 47 -63 58 -21 10 -132 64 -245 119 -236 116
-232 105 -50 139 17 3 27 1 27 -6 0 -7 3 -10 6 -6 3 3 14 -2 23 -11 34 -32 61
-52 71 -52 6 0 10 -4 10 -8 0 -5 25 -26 55 -48 30 -21 55 -42 55 -46 0 -5 7
-8 15 -8 9 0 18 -7 21 -15 4 -8 12 -15 19 -15 7 0 19 -10 28 -22 8 -13 23 -32
34 -43 10 -11 34 -40 53 -65 19 -25 39 -48 45 -52 5 -4 7 -8 3 -8 -5 0 0 -8
10 -18 26 -27 63 -72 102 -122 19 -25 42 -54 52 -65 9 -11 42 -51 73 -90 31
-38 61 -77 68 -85 7 -8 39 -49 72 -90 33 -41 62 -77 65 -80 3 -3 41 -50 85
-105 43 -55 84 -105 90 -111 5 -6 19 -23 30 -38 11 -15 27 -36 37 -47 27 -33
78 -96 176 -218 51 -64 100 -124 108 -134 14 -17 18 -14 57 45 72 108 52 105
201 30 72 -37 134 -70 137 -75 3 -5 8 -8 10 -7 8 3 45 -14 62 -28 9 -8 17 -12
17 -8 0 3 11 -1 25 -10 27 -18 26 -25 10 81 -11 65 -15 98 -20 140 -5 41 -12
80 -15 80 -1 0 -3 14 -5 30 -11 83 -16 120 -25 165 -5 27 -12 71 -15 97 -3 26
-8 58 -10 70 -5 21 -3 21 27 11 18 -6 38 -14 43 -18 6 -4 39 -17 75 -30 36
-13 69 -27 75 -32 15 -13 28 -9 22 7 -4 8 -2 17 4 20 5 4 6 11 3 17 -4 5 -6
59 -5 119 l2 109 -198 96 c-109 53 -271 132 -360 175 -146 70 -189 100 -186
129 0 3 -12 32 -27 65 -15 33 -42 96 -61 140 -19 44 -38 83 -42 86 -5 3 -8 8
-7 10 1 2 -3 16 -9 32 l-11 27 -87 -5 c-49 -2 -130 -7 -181 -11 -55 -3 -98 -2
-105 4 -7 5 -23 13 -37 17 -14 4 -38 13 -55 20 -33 14 -56 22 -68 23 -4 1 -20
8 -35 15 -32 17 -56 27 -137 58 -33 12 -64 25 -70 29 -5 3 -29 13 -53 20 -24
8 -53 24 -65 37 -12 13 -42 45 -67 71 -25 27 -79 86 -120 132 -41 46 -83 92
-92 102 -17 17 -15 19 52 53 66 33 69 36 60 60 -5 14 -7 25 -4 25 4 0 1 6 -5
13 -6 8 -12 23 -14 35 -2 12 -6 25 -10 28 -4 4 -7 15 -7 25 0 23 -22 30 -62
18 -18 -5 -44 -12 -58 -14 -43 -7 -82 -15 -170 -36 -47 -11 -96 -22 -110 -25
-14 -3 -34 -8 -45 -10 -11 -3 -29 -7 -40 -8 -11 -2 -31 -6 -45 -10 -14 -3 -36
-8 -50 -11 -14 -2 -54 -11 -90 -20 -123 -28 -141 -27 -68 3 88 36 99 47 70 68
-13 9 -35 27 -50 41 -15 14 -44 39 -64 56 -55 45 -47 53 11 11 l50 -35 10 38
c10 35 37 153 46 198 2 11 11 49 20 85 24 95 21 83 59 247 14 61 28 117 30
125 2 7 7 26 11 41 5 27 8 28 45 23 22 -3 57 -9 79 -12 l39 -5 11 48 c6 26 14
64 17 83 3 19 7 40 8 45 3 18 18 36 35 43 9 4 62 36 119 71 l103 63 -1 249
c-1 137 -4 249 -8 249 -4 0 -25 17 -48 38 -22 20 -60 53 -84 72 -23 19 -54 45
-69 58 -14 13 -74 64 -133 114 -60 50 -108 94 -108 99 0 5 -7 9 -15 9 -8 0
-20 9 -27 20 -7 11 -18 20 -25 20 -7 0 -13 5 -13 10 0 6 -21 20 -47 30 -27 11
-56 25 -67 31 -10 6 -26 12 -35 14 -10 2 -37 12 -62 23 -24 11 -73 32 -109 47
-36 15 -79 33 -97 41 -17 8 -34 14 -38 14 -3 0 -31 11 -61 25 -30 14 -59 25
-63 25 -16 0 -19 24 -5 50 14 29 25 59 21 64 -1 1 3 9 10 17 6 8 20 37 31 64
11 28 27 67 36 87 l16 37 -52 48 c-61 57 -130 122 -191 181 -35 32 -56 44 -89
48 -24 3 -59 7 -78 11 -46 7 -74 10 -140 18 -30 4 -57 8 -60 10 -3 2 -28 6
-57 9 l-52 6 -27 -48 c-15 -26 -32 -53 -38 -61 -5 -7 -11 -20 -12 -29 -2 -8
-6 -18 -11 -21 -4 -3 -13 -15 -19 -26 -6 -11 -28 -51 -49 -90 -21 -38 -49 -87
-62 -107 -13 -21 -23 -40 -23 -44 0 -3 -16 -33 -36 -65 -37 -60 -42 -61 -74
-29 -3 3 -50 38 -105 79 -55 41 -102 77 -105 81 -3 3 -21 17 -40 30 -19 13
-37 27 -40 30 -3 3 -21 17 -40 30 -19 13 -37 27 -40 30 -16 17 -132 100 -140
100 -6 0 -10 4 -10 8 0 5 -30 30 -67 57 -74 54 -77 56 -112 85 -13 11 -27 20
-30 20 -3 0 -20 13 -38 28 -17 15 -44 36 -59 47 -28 21 -132 99 -149 113 -5 4
-37 28 -70 52 -33 25 -61 48 -63 53 -2 4 -10 7 -17 7 -7 0 -16 6 -18 13 -3 6
-6 9 -7 5z m2940 -6702 c110 -42 124 -47 127 -47 2 0 23 -8 48 -19 25 -11 45
-17 45 -13 0 3 9 -2 21 -13 12 -10 23 -18 25 -17 10 6 64 -10 64 -19 0 -5 6
-6 13 -2 8 6 8 3 -1 -9 -16 -19 -77 -41 -92 -32 -5 3 -26 8 -47 11 -58 9 -67
11 -83 16 -8 3 -44 11 -80 18 -109 20 -126 24 -180 36 -14 3 -33 7 -42 8 -27
4 -28 9 -12 61 9 28 17 57 19 65 2 8 4 16 4 17 1 3 45 -13 171 -61z"/>
<path d="M19877 5616 l-47 -23 39 -42 c21 -22 44 -41 50 -41 7 0 11 24 11 65
0 36 -1 65 -2 64 -2 0 -24 -11 -51 -23z"/>
</g>
</svg>
